<svg xmlns="http://www.w3.org/2000/svg" viewBox="0 0 453.17 263.25"><defs><style>.cls-1{font-size:165.24px;font-family:Noteworthy-Bold, Noteworthy;font-weight:700;}.cls-1,.cls-5{fill:#fff;}.cls-2{letter-spacing:0.02em;}.cls-3{letter-spacing:0.01em;}.cls-4{letter-spacing:-0.05em;}</style></defs><title>Asset 5</title><g id="Layer_2" data-name="Layer 2"><g id="Layer_1-2" data-name="Layer 1"><text class="cls-1" transform="translate(115.25 184.95)"><tspan class="cls-2">u</tspan><tspan class="cls-3" x="79.1" y="0">n</tspan><tspan class="cls-4" x="168.74" y="0">k</tspan><tspan x="247.02" y="0">y</tspan></text><path class="cls-5" d="M72.18,133.67l28.07-31.95a29.47,29.47,0,0,0-.47-39.44L51.14,9.55C33-10.18,0,2.7,0,29.53V234.28c0,26.33,32.32,39,50.17,19.6l47.72-51.73a28.9,28.9,0,0,0,.47-38.69ZM20.12,53.78c0-14.43,17.71-21.35,27.49-10.75L73.76,71.38A15.84,15.84,0,0,1,74,92.58L57.46,111.42a15.87,15.87,0,0,1-11.9,5.39H36A15.85,15.85,0,0,1,20.12,101ZM73.76,192.09,47.61,220.43c-9.78,10.61-27.49,3.69-27.49-10.74V162.85A15.85,15.85,0,0,1,36,147h9.89a15.87,15.87,0,0,1,11.91,5.38L74,170.89A15.84,15.84,0,0,1,73.76,192.09Z"/></g></g></svg>